<?xml version="1.0" encoding="UTF-8" standalone="no"?>
<!-- Created with Inkscape (http://www.inkscape.org/) -->

<svg
   xmlns:osb="http://www.openswatchbook.org/uri/2009/osb"
   xmlns:dc="http://purl.org/dc/elements/1.1/"
   xmlns:cc="http://creativecommons.org/ns#"
   xmlns:rdf="http://www.w3.org/1999/02/22-rdf-syntax-ns#"
   xmlns:svg="http://www.w3.org/2000/svg"
   xmlns="http://www.w3.org/2000/svg"
   xmlns:xlink="http://www.w3.org/1999/xlink"
   xmlns:sodipodi="http://sodipodi.sourceforge.net/DTD/sodipodi-0.dtd"
   xmlns:inkscape="http://www.inkscape.org/namespaces/inkscape"
   width="56.726665mm"
   height="56.726665mm"
   viewBox="0 0 201 200.99999"
   id="svg2"
   version="1.1"
   inkscape:version="0.91 r13725"
   sodipodi:docname="button.svg.2015_06_03_14_51_33.0.svg">
  <defs
     id="defs4">
    <linearGradient
       inkscape:collect="always"
       id="linearGradient4235">
      <stop
         style="stop-color:#000000;stop-opacity:1;"
         offset="0"
         id="stop4237" />
      <stop
         style="stop-color:#000000;stop-opacity:0;"
         offset="1"
         id="stop4240" />
    </linearGradient>
    <linearGradient
       osb:paint="gradient"
       id="linearGradient4181">
      <stop
         id="stop4143"
         offset="0"
         style="stop-color:#ffffff;stop-opacity:1;" />
      <stop
         id="stop4145"
         offset="1"
         style="stop-color:#ffffff;stop-opacity:0;" />
    </linearGradient>
    <linearGradient
       id="linearGradient4147"
       osb:paint="gradient">
      <stop
         style="stop-color:#ffffff;stop-opacity:1;"
         offset="0"
         id="stop4167" />
      <stop
         style="stop-color:#ffffff;stop-opacity:0;"
         offset="1"
         id="stop4169" />
    </linearGradient>
    <linearGradient
       inkscape:collect="always"
       xlink:href="#linearGradient4235"
       id="linearGradient4242"
       x1="231.12563"
       y1="402.49557"
       x2="426.62958"
       y2="402.49557"
       gradientUnits="userSpaceOnUse"
       gradientTransform="translate(-1.972545,0.16732635)" />
    <linearGradient
       gradientTransform="matrix(-1,0,0,-1,655.23169,805.13295)"
       inkscape:collect="always"
       xlink:href="#linearGradient4235"
       id="linearGradient4242-7"
       x1="231.12563"
       y1="402.49557"
       x2="426.62958"
       y2="402.49557"
       gradientUnits="userSpaceOnUse" />
  </defs>
  <sodipodi:namedview
     id="base"
     pagecolor="#ffffff"
     bordercolor="#666666"
     borderopacity="1.0"
     inkscape:pageopacity="0.0"
     inkscape:pageshadow="2"
     inkscape:zoom="1.979899"
     inkscape:cx="108.14613"
     inkscape:cy="162.03553"
     inkscape:document-units="px"
     inkscape:current-layer="layer1"
     showgrid="false"
     inkscape:window-width="1855"
     inkscape:window-height="951"
     inkscape:window-x="65"
     inkscape:window-y="24"
     inkscape:window-maximized="1"
     fit-margin-top="0"
     fit-margin-left="0"
     fit-margin-right="0"
     fit-margin-bottom="0" />
  <metadata
     id="metadata7">
    <rdf:RDF>
      <cc:Work
         rdf:about="">
        <dc:format>image/svg+xml</dc:format>
        <dc:type
           rdf:resource="http://purl.org/dc/dcmitype/StillImage" />
        <dc:title></dc:title>
      </cc:Work>
    </rdf:RDF>
  </metadata>
  <g
     inkscape:label="Layer 1"
     inkscape:groupmode="layer"
     id="layer1"
     transform="translate(-226.12957,-302.15014)">
    <path
       style="fill:#0000ff;fill-rule:evenodd;stroke:#000000;stroke-width:1px;stroke-linecap:butt;stroke-linejoin:miter;stroke-opacity:1"
       d="m 231.62957,302.65014 190,0 c 2.77,0 5,2.23 5,5 l 0,190 c 0,2.77 -2.23,5 -5,5 l -190,0 c -2.77,0 -5,-2.23 -5,-5 l 0,-190 c 0,-2.77 2.23,-5 5,-5 z"
       id="rect3336"
       inkscape:connector-curvature="0" />
    <path
       style="fill:url(#linearGradient4242);fill-opacity:1;fill-rule:evenodd;stroke:none;stroke-width:1px;stroke-linecap:butt;stroke-linejoin:miter;stroke-opacity:1"
       d="m 362.23954,366.45708 c 2.281,-39.85737 27.89172,-44.68848 57.41748,-63.63961 2.33113,-1.49624 5,2.23 5,5 l 0,190 c 0,2.77 -2.23,5 -5,5 l -190,0 c -6.70929,0.81495 18.87289,-62.3861 68.52663,-63.17693 29.7164,-0.47329 63.06234,-52.48639 64.05589,-73.18346 z"
       id="rect3336-2"
       inkscape:connector-curvature="0"
       sodipodi:nodetypes="csssscsc" />
    <path
       style="fill:url(#linearGradient4242-7);fill-opacity:1;fill-rule:evenodd;stroke:none;stroke-width:1px;stroke-linecap:butt;stroke-linejoin:miter;stroke-opacity:1"
       d="m 291.0196,438.8432 c -2.281,39.85737 -27.89172,44.68848 -57.41748,63.63961 -2.33113,1.49624 -5,-2.23 -5,-5 l 0,-190 c 0,-2.77 2.23,-5 5,-5 l 190,0 c 6.70929,-0.81495 -18.87289,62.3861 -68.52663,63.17693 -29.7164,0.47329 -63.06234,52.48639 -64.05589,73.18346 z"
       id="rect3336-2-2"
       inkscape:connector-curvature="0"
       sodipodi:nodetypes="csssscsc" />
    <path
       style="fill:#0000ff;fill-opacity:1;fill-rule:evenodd;stroke:none;stroke-width:0.62189054px;stroke-linecap:butt;stroke-linejoin:miter;stroke-opacity:1"
       d="m 291.00268,365.14972 c 23.9481,2.1791 47.63614,1.49761 71.24999,0 1.03667,-0.0658 1.92434,0.83742 1.875,1.875 -1.12941,23.75 -2.75951,47.49999 0,71.24999 0.11989,1.03181 -0.84116,1.97592 -1.875,1.875 -23.75,-2.31852 -47.49999,-1.7019 -71.24999,0 -1.03609,0.0743 -1.96748,-0.84038 -1.875,-1.875 2.08899,-23.37018 1.60121,-47.20886 0,-71.24999 -0.069,-1.03645 0.84052,-1.96913 1.875,-1.875 z"
       id="rect3336-3-0-3"
       inkscape:connector-curvature="0" />
  </g>
</svg>
