<?xml version="1.0" encoding="UTF-8" standalone="no"?>
<!-- Created with Inkscape (http://www.inkscape.org/) -->

<svg
   xmlns:dc="http://purl.org/dc/elements/1.1/"
   xmlns:cc="http://creativecommons.org/ns#"
   xmlns:rdf="http://www.w3.org/1999/02/22-rdf-syntax-ns#"
   xmlns:svg="http://www.w3.org/2000/svg"
   xmlns="http://www.w3.org/2000/svg"
   xmlns:xlink="http://www.w3.org/1999/xlink"
   xmlns:sodipodi="http://sodipodi.sourceforge.net/DTD/sodipodi-0.dtd"
   xmlns:inkscape="http://www.inkscape.org/namespaces/inkscape"
   width="42.476334mm"
   height="16.026592mm"
   viewBox="0 0 150.50669 56.787138"
   id="svg2"
   version="1.1"
   inkscape:version="0.91 r13725"
   sodipodi:docname="lukebailey.svg">
  <defs
     id="defs4">
    <linearGradient
       inkscape:collect="always"
       id="linearGradient4252">
      <stop
         style="stop-color:#969696;stop-opacity:1;"
         offset="0"
         id="stop4254" />
      <stop
         style="stop-color:#969696;stop-opacity:0;"
         offset="1"
         id="stop4256" />
    </linearGradient>
    <linearGradient
       inkscape:collect="always"
       id="linearGradient4144">
      <stop
         style="stop-color:#000000;stop-opacity:1;"
         offset="0"
         id="stop4146" />
      <stop
         id="stop4164"
         offset="0.16732669"
         style="stop-color:#969696;stop-opacity:1" />
      <stop
         id="stop4160"
         offset="0.50915831"
         style="stop-color:#c8c8c8;stop-opacity:1" />
      <stop
         style="stop-color:#969696;stop-opacity:1"
         offset="0.7894603"
         id="stop4162" />
      <stop
         style="stop-color:#000000;stop-opacity:1"
         offset="1"
         id="stop4148" />
    </linearGradient>
    <linearGradient
       inkscape:collect="always"
       xlink:href="#linearGradient4144"
       id="linearGradient4189"
       gradientUnits="userSpaceOnUse"
       x1="78.165154"
       y1="232.76369"
       x2="313.24329"
       y2="232.76369"
       gradientTransform="translate(-85.571429,14.107143)" />
    <linearGradient
       inkscape:collect="always"
       xlink:href="#linearGradient4144"
       id="linearGradient4220"
       gradientUnits="userSpaceOnUse"
       x1="78.165154"
       y1="232.76369"
       x2="313.24329"
       y2="232.76369" />
    <linearGradient
       inkscape:collect="always"
       xlink:href="#linearGradient4144"
       id="linearGradient4222"
       gradientUnits="userSpaceOnUse"
       x1="78.165154"
       y1="232.76369"
       x2="313.24329"
       y2="232.76369"
       gradientTransform="translate(-6,0)" />
    <linearGradient
       inkscape:collect="always"
       xlink:href="#linearGradient4144"
       id="linearGradient4224"
       gradientUnits="userSpaceOnUse"
       x1="78.165154"
       y1="232.76369"
       x2="313.24329"
       y2="232.76369"
       gradientTransform="translate(-12,0)" />
    <linearGradient
       inkscape:collect="always"
       xlink:href="#linearGradient4144"
       id="linearGradient4226"
       gradientUnits="userSpaceOnUse"
       x1="78.165154"
       y1="232.76369"
       x2="313.24329"
       y2="232.76369"
       gradientTransform="translate(-20,0)" />
    <linearGradient
       inkscape:collect="always"
       xlink:href="#linearGradient4144"
       id="linearGradient4228"
       gradientUnits="userSpaceOnUse"
       x1="78.165154"
       y1="232.76369"
       x2="313.24329"
       y2="232.76369"
       gradientTransform="translate(-53.571429,14.107143)" />
    <linearGradient
       inkscape:collect="always"
       xlink:href="#linearGradient4144"
       id="linearGradient4230"
       gradientUnits="userSpaceOnUse"
       x1="78.165154"
       y1="232.76369"
       x2="313.24329"
       y2="232.76369"
       gradientTransform="translate(-61.571429,14.107143)" />
    <linearGradient
       inkscape:collect="always"
       xlink:href="#linearGradient4144"
       id="linearGradient4232"
       gradientUnits="userSpaceOnUse"
       x1="78.165154"
       y1="232.76369"
       x2="313.24329"
       y2="232.76369"
       gradientTransform="translate(-68.107142,14.107143)" />
    <linearGradient
       inkscape:collect="always"
       xlink:href="#linearGradient4144"
       id="linearGradient4234"
       gradientUnits="userSpaceOnUse"
       x1="78.165154"
       y1="232.76369"
       x2="313.24329"
       y2="232.76369"
       gradientTransform="translate(-75.928571,14.107143)" />
    <linearGradient
       inkscape:collect="always"
       xlink:href="#linearGradient4144"
       id="linearGradient4236"
       gradientUnits="userSpaceOnUse"
       x1="78.165154"
       y1="232.76369"
       x2="313.24329"
       y2="232.76369"
       gradientTransform="translate(-81.571429,14.107143)" />
    <linearGradient
       inkscape:collect="always"
       xlink:href="#linearGradient4252"
       id="linearGradient4283"
       gradientUnits="userSpaceOnUse"
       gradientTransform="translate(60.232153,-20.000001)"
       x1="113.71373"
       y1="285.18332"
       x2="215.14795"
       y2="285.18332" />
    <linearGradient
       inkscape:collect="always"
       xlink:href="#linearGradient4252"
       id="linearGradient4285"
       gradientUnits="userSpaceOnUse"
       gradientTransform="translate(58.589296,-20.000001)"
       x1="113.71373"
       y1="285.18332"
       x2="215.14795"
       y2="285.18332" />
    <linearGradient
       inkscape:collect="always"
       xlink:href="#linearGradient4252"
       id="linearGradient4287"
       gradientUnits="userSpaceOnUse"
       gradientTransform="translate(56.589296,-20.000001)"
       x1="113.71373"
       y1="285.18332"
       x2="215.14795"
       y2="285.18332" />
    <linearGradient
       inkscape:collect="always"
       xlink:href="#linearGradient4252"
       id="linearGradient4289"
       gradientUnits="userSpaceOnUse"
       gradientTransform="translate(54.812511,-20.000001)"
       x1="113.71373"
       y1="285.18332"
       x2="215.14795"
       y2="285.18332" />
    <linearGradient
       inkscape:collect="always"
       xlink:href="#linearGradient4252"
       id="linearGradient4291"
       gradientUnits="userSpaceOnUse"
       gradientTransform="translate(53.169654,-20.000001)"
       x1="113.71373"
       y1="285.18332"
       x2="215.14795"
       y2="285.18332" />
    <linearGradient
       inkscape:collect="always"
       xlink:href="#linearGradient4252"
       id="linearGradient4293"
       gradientUnits="userSpaceOnUse"
       gradientTransform="translate(51.660726,-20.000001)"
       x1="113.71373"
       y1="285.18332"
       x2="215.14795"
       y2="285.18332" />
    <linearGradient
       inkscape:collect="always"
       xlink:href="#linearGradient4252"
       id="linearGradient4295"
       gradientUnits="userSpaceOnUse"
       gradientTransform="translate(49.660726,-20.000001)"
       x1="113.71373"
       y1="285.18332"
       x2="215.14795"
       y2="285.18332" />
    <linearGradient
       inkscape:collect="always"
       xlink:href="#linearGradient4252"
       id="linearGradient4297"
       gradientUnits="userSpaceOnUse"
       gradientTransform="translate(47.660726,-20.000001)"
       x1="113.71373"
       y1="285.18332"
       x2="215.14795"
       y2="285.18332" />
    <linearGradient
       inkscape:collect="always"
       xlink:href="#linearGradient4252"
       id="linearGradient4299"
       gradientUnits="userSpaceOnUse"
       gradientTransform="translate(46.062513,-20.000001)"
       x1="113.71373"
       y1="285.18332"
       x2="215.14795"
       y2="285.18332" />
    <linearGradient
       inkscape:collect="always"
       xlink:href="#linearGradient4252"
       id="linearGradient4301"
       gradientUnits="userSpaceOnUse"
       gradientTransform="translate(44.142864,-20.000001)"
       x1="113.71373"
       y1="285.18332"
       x2="215.14795"
       y2="285.18332" />
    <linearGradient
       inkscape:collect="always"
       xlink:href="#linearGradient4252"
       id="linearGradient4303"
       gradientUnits="userSpaceOnUse"
       gradientTransform="translate(42,-20.000001)"
       x1="113.71373"
       y1="285.18332"
       x2="215.14795"
       y2="285.18332" />
  </defs>
  <sodipodi:namedview
     id="base"
     pagecolor="#ffffff"
     bordercolor="#666666"
     borderopacity="1.0"
     inkscape:pageopacity="0.0"
     inkscape:pageshadow="2"
     inkscape:zoom="3.959798"
     inkscape:cx="49.180711"
     inkscape:cy="-29.153189"
     inkscape:document-units="px"
     inkscape:current-layer="layer1"
     showgrid="false"
     inkscape:window-width="1920"
     inkscape:window-height="980"
     inkscape:window-x="0"
     inkscape:window-y="31"
     inkscape:window-maximized="1"
     fit-margin-top="0"
     fit-margin-left="0"
     fit-margin-right="0"
     fit-margin-bottom="0" />
  <metadata
     id="metadata7">
    <rdf:RDF>
      <cc:Work
         rdf:about="">
        <dc:format>image/svg+xml</dc:format>
        <dc:type
           rdf:resource="http://purl.org/dc/dcmitype/StillImage" />
        <dc:title></dc:title>
      </cc:Work>
    </rdf:RDF>
  </metadata>
  <g
     inkscape:label="Layer 1"
     inkscape:groupmode="layer"
     id="layer1"
     transform="translate(-77.665164,-215.14368)">
    <path
       inkscape:connector-curvature="0"
       id="path4200"
       style="font-style:normal;font-variant:normal;font-weight:normal;font-stretch:normal;font-size:medium;line-height:125%;font-family:Purisa;-inkscape-font-specification:Purisa;letter-spacing:0px;word-spacing:0px;fill:#000000;fill-opacity:0;stroke:url(#linearGradient4220);stroke-width:1px;stroke-linecap:butt;stroke-linejoin:miter;stroke-opacity:1"
       d="m 78.165156,217.28368 q 0,-0.04 0,-0.16 0,-0.16 0,-0.24 0,-0.12 0,-0.24 0,-0.16 0,-0.24 0.04,-0.12 0.08,-0.2 0.04,-0.12 0.12,-0.2 0.08,-0.08 0.16,-0.12 0.12,-0.04 0.24,-0.04 0.8,0 1.4,1.48 0.52,1.32 1.04,12.6 0.56,11.8 0.92,13.4 0.28,1.24 1.04,1.32 0.16,0.04 0.48,0.04 1.04,0 4.76,-0.84 3.76,-0.88 7.08,-1.72 3.36,-0.88 3.48,-0.88 0.68,0 1.080004,0.52 0.44,0.52 0.44,0.84 0,0.28 -0.760004,1 -1.28,1.04 -7.44,2.6 -6.16,1.56 -9.84,1.56 -1.68,0 -2.2,-0.6 -0.84,-0.96 -1.2,-6.08 -0.12,-2.12 -0.44,-9.56 -0.44,-10 -0.44,-14.24 z" />
    <path
       inkscape:connector-curvature="0"
       id="path4202"
       style="font-style:normal;font-variant:normal;font-weight:normal;font-stretch:normal;font-size:medium;line-height:125%;font-family:Purisa;-inkscape-font-specification:Purisa;letter-spacing:0px;word-spacing:0px;fill:#000000;fill-opacity:0;stroke:url(#linearGradient4222);stroke-width:1px;stroke-linecap:butt;stroke-linejoin:miter;stroke-opacity:1"
       d="m 99.68453,233.28368 q 0,-7.48 1.12,-7.48 0.2,0 0.4,0.08 0.24,0.08 0.56,0.6 0.32,0.48 0.32,1.36 0,0.4 -0.08,1.36 -0.08,0.92 -0.08,2.08 0,3.24 0.36,7.88 0.36,4.64 0.76,6.08 0.4,1.56 1.36,1.56 0.92,0 2.8,-1.64 2.32,-2.04 4.44,-6.36 2.16,-4.32 3,-8.64 0.8,-4.24 1.32,-4.52 0.4,-0.28 0.84,-0.28 0.96,0 0.96,1.12 0,0.6 -0.6,4.72 -0.56,4.08 -0.56,5.88 0,2.52 1,6.28 1.04,3.72 1.04,4.24 0,0.4 -0.32,0.64 -0.32,0.24 -0.56,0.28 -0.2,0.08 -0.32,0.08 -0.72,0 -1.44,-2.04 -0.68,-2.04 -1.24,-4.08 -0.52,-2.04 -0.92,-2.04 -0.08,0 -0.16,0.04 -0.08,0.04 -0.2,0.16 -0.08,0.08 -0.16,0.2 -0.08,0.12 -0.24,0.32 -0.12,0.2 -0.24,0.36 -0.08,0.16 -0.28,0.48 -0.2,0.32 -0.32,0.52 -1.76,2.76 -3.92,4.6 -2.12,1.84 -3.6,1.84 -1.68,0 -2.52,-0.76 -0.84,-0.72 -1.36,-2.64 -0.48,-1.92 -0.88,-6.08 -0.28,-2.64 -0.28,-6.2 z" />
    <path
       inkscape:connector-curvature="0"
       id="path4204"
       style="font-style:normal;font-variant:normal;font-weight:normal;font-stretch:normal;font-size:medium;line-height:125%;font-family:Purisa;-inkscape-font-specification:Purisa;letter-spacing:0px;word-spacing:0px;fill:#000000;fill-opacity:0;stroke:url(#linearGradient4224);stroke-width:1px;stroke-linecap:butt;stroke-linejoin:miter;stroke-opacity:1"
       d="m 116.90328,217.56368 q 0,-0.04 0,-0.24 0,-0.24 0,-0.36 0,-0.12 0,-0.36 0.04,-0.24 0.08,-0.36 0.08,-0.16 0.16,-0.28 0.12,-0.16 0.28,-0.24 0.16,-0.08 0.4,-0.08 0.76,0 1.12,0.92 0.24,0.56 0.52,3.44 0.32,2.88 0.64,6.48 0.36,3.6 0.6,5.12 l 0.32,2.32 4.56,-4.56 q 2.44,-2.44 3.44,-3.28 1,-0.88 1.48,-0.88 0.28,0 0.6,0.4 0.36,0.4 0.36,0.8 0,0.28 -0.16,0.48 -0.12,0.16 -0.36,0.32 -0.2,0.12 -0.68,0.64 -0.48,0.52 -1.04,1.28 -1.64,2.48 -6.32,6.24 -1.6,1.24 -1.6,2.08 0,0.56 0.72,0.92 l 4.28,2 q 2.96,1.4 4.92,2.8 1.96,1.4 1.96,2.16 0,0.84 -0.8,0.84 -0.72,0 -2.12,-0.96 -1.4,-1 -1.76,-1 -0.48,0 -0.48,-0.32 0,-0.44 -4.88,-2.24 l -2.12,-0.8 0.28,3.32 q 0.12,1.32 0.12,2.08 0,1.68 -0.84,1.68 -1.28,0 -1.64,-1.76 -0.32,-1.8 -0.6,-9.08 -0.24,-6.44 -0.6,-8.4 -0.32,-1.8 -0.6,-5.36 -0.24,-3.6 -0.24,-5.76 z" />
    <path
       inkscape:connector-curvature="0"
       id="path4206"
       style="font-style:normal;font-variant:normal;font-weight:normal;font-stretch:normal;font-size:medium;line-height:125%;font-family:Purisa;-inkscape-font-specification:Purisa;letter-spacing:0px;word-spacing:0px;fill:#000000;fill-opacity:0;stroke:url(#linearGradient4226);stroke-width:1px;stroke-linecap:butt;stroke-linejoin:miter;stroke-opacity:1"
       d="m 150.36453,238.76368 q 0.2,0 0.2,0.32 0,0.72 -1.08,2.32 -1.04,1.6 -2.24,2.64 -4.2,3.72 -8.4,3.72 -1.6,0 -3.2,-0.72 -1.56,-0.76 -2.92,-2.12 -1.36,-1.36 -2.2,-3.64 -0.84,-2.28 -0.84,-5.08 0,-1.72 0.4,-2.92 0.8,-2.44 3.4,-5.16 2.64,-2.72 4.96,-2.72 0.64,0 1.92,0.12 1.92,0.16 2.68,0.4 0.8,0.24 1.8,1 1.28,0.96 2.2,2.48 0.96,1.48 0.96,2.48 0,1.28 -1,1.96 -1,0.64 -3.88,1.28 -3.72,0.84 -7.36,1.04 l -3.72,0.2 0,1.6 q 0,2.96 2.76,5.6 2.08,2 4.32,2 1.72,0 3.64,-1.04 1.96,-1.08 3.32,-2.36 1.36,-1.28 2.6,-2.32 1.24,-1.08 1.68,-1.08 z m -6.44,-9.76 q -1.24,-1.12 -1.88,-1.4 -0.6,-0.32 -1.6,-0.32 -2,0 -3,0.4 -0.96,0.36 -1.96,1.52 -3.04,3.48 -3.04,4.64 0,0.52 0.96,0.52 3.64,0 10.32,-1.52 2,-0.48 2,-1.68 0,-0.56 -1.8,-2.16 z" />
    <path
       inkscape:connector-curvature="0"
       id="path4208"
       style="font-style:normal;font-variant:normal;font-weight:normal;font-stretch:normal;font-size:medium;line-height:125%;font-family:Purisa;-inkscape-font-specification:Purisa;letter-spacing:0px;word-spacing:0px;fill:#000000;fill-opacity:0;stroke:url(#linearGradient4228);stroke-width:1px;stroke-linecap:butt;stroke-linejoin:miter;stroke-opacity:1"
       d="m 157.73998,260.51082 q -0.52,0 -1.48,0.36 -0.96,0.32 -1.4,0.32 -0.52,0 -0.88,-0.36 -0.32,-0.4 -0.56,-1.16 -0.2,-0.8 -0.32,-1.8 -0.12,-1 -0.24,-2.48 -0.08,-1.48 -0.2,-2.96 -0.08,-1.48 -0.28,-3.52 -0.16,-2.08 -0.4,-3.96 -0.44,-3.96 -0.68,-6.96 l -0.28,-3.6 -1.56,0 q -2,0 -2,-0.88 0,-1.28 6.16,-2.88 2.48,-0.64 7.28,-0.64 1.84,0 2.44,0.2 0.64,0.16 1.28,0.84 1,1.16 1,1.88 0,1.84 -1.04,3.92 -1,2.08 -2.04,3.52 -1,1.44 -1,1.72 0,0.24 0.56,0.24 0.8,0 2.4,1 1.64,0.96 2.12,1.76 0.96,1.56 0.96,4.6 0,4.76 -2.68,8.04 -2.64,3.28 -5,3.28 -0.4,0 -1.04,-0.24 -0.64,-0.24 -1.12,-0.24 z m 5.16,-27.64 q -0.6,-0.64 -2.92,-0.64 -1.44,0 -2.64,0.2 -2.96,0.52 -3.32,0.76 -0.4,0.28 -0.4,1.4 l 0,0.8 q 0,2.44 0.48,5.72 0.28,2.16 0.52,2.8 0.24,0.6 0.8,0.6 0.88,0 3.44,-3 2.6,-3 3.6,-5.16 1,-2.24 1,-2.56 0,-0.28 -0.56,-0.92 z m 2.56,17.36 q 0,-5.24 -3.88,-5.24 -1,0 -2.04,0.32 -1,0.28 -2.28,0.88 -1.24,0.56 -1.72,0.72 -0.4,0.16 -0.56,0.48 -0.12,0.32 -0.12,1.4 0,1.08 0.12,3.48 0.08,1.44 0.12,2.28 0.08,0.8 0.16,1.6 0.12,0.8 0.32,1.16 0.2,0.36 0.4,0.72 0.24,0.32 0.68,0.44 0.44,0.12 0.88,0.2 0.48,0.04 1.28,0.08 0.2,0 0.52,0.04 0.32,0 0.44,0 1,0 1.52,-0.36 0.52,-0.36 1.8,-1.88 1.36,-1.52 1.84,-2.68 0.52,-1.2 0.52,-3.64 z" />
    <path
       inkscape:connector-curvature="0"
       id="path4210"
       style="font-style:normal;font-variant:normal;font-weight:normal;font-stretch:normal;font-size:medium;line-height:125%;font-family:Purisa;-inkscape-font-specification:Purisa;letter-spacing:0px;word-spacing:0px;fill:#000000;fill-opacity:0;stroke:url(#linearGradient4230);stroke-width:1px;stroke-linecap:butt;stroke-linejoin:miter;stroke-opacity:1"
       d="m 177.27185,241.55082 q -1.84,0 -3.92,0.76 -2.04,0.76 -3.64,1.56 -1.6,0.76 -2.32,0.76 -0.48,0 -0.48,-0.4 0,-0.56 0.24,-0.96 0.24,-0.4 0.88,-0.76 0.64,-0.36 1.2,-0.6 0.6,-0.24 1.88,-0.68 1.28,-0.48 2.2,-0.88 2.16,-0.84 3.64,-0.84 2.64,0 4.12,2.88 0.72,1.4 0.84,2.6 0.12,1.16 0.2,6.6 0.04,3.04 0.12,5.12 0.08,2.04 0.16,2.6 l 0.08,0.52 q 0,0.56 -0.52,1.2 -0.48,0.64 -0.72,0.64 -0.8,0 -1.24,-2.52 -0.44,-2.56 -0.48,-2.56 -0.12,0 -0.36,0.44 -0.8,1.32 -3.24,2.92 -2.4,1.56 -4.04,1.56 -1,0 -2.36,-0.36 -1.32,-0.4 -1.92,-0.84 -0.44,-0.36 -0.76,-1.44 -0.28,-1.08 -0.28,-2.2 0,-1.68 0.88,-2.88 0.92,-1.24 3.24,-2.52 2.52,-1.48 4.88,-1.48 0.96,0 1.6,0.32 0.64,0.32 0.96,0.68 0.32,0.32 0.52,0.32 0.2,0 0.76,0.44 0.6,0.4 0.64,0.4 0.16,0 0.16,-0.88 0,-5.36 -0.76,-7.44 -0.72,-2.08 -2.16,-2.08 z m 1.8,12.4 q 0,-0.16 -0.12,-0.36 -0.08,-0.24 -0.4,-0.52 -0.28,-0.32 -0.76,-0.56 -0.44,-0.28 -1.24,-0.44 -0.8,-0.2 -1.8,-0.2 -1.72,0 -3.04,0.6 -1.28,0.6 -1.92,1.52 -0.64,0.92 -0.96,1.72 -0.28,0.76 -0.28,1.36 0,1 0.16,1.36 0.2,0.36 0.92,0.76 0.88,0.44 1.6,0.44 1.36,0 3.36,-0.96 2.04,-1 2.04,-1.44 0,-0.32 1.2,-1.52 1.24,-1.24 1.24,-1.76 z" />
    <path
       inkscape:connector-curvature="0"
       id="path4212"
       style="font-style:normal;font-variant:normal;font-weight:normal;font-stretch:normal;font-size:medium;line-height:125%;font-family:Purisa;-inkscape-font-specification:Purisa;letter-spacing:0px;word-spacing:0px;fill:#000000;fill-opacity:0;stroke:url(#linearGradient4232);stroke-width:1px;stroke-linecap:butt;stroke-linejoin:miter;stroke-opacity:1"
       d="m 183.08177,238.67082 q 0.56,-0.48 0.96,-0.48 0.84,0 1.2,2.68 0.4,2.64 0.72,10.2 0.16,3.52 0.16,6.36 0,2.84 -0.24,3.12 -0.48,0.6 -1.2,0.6 -1,0 -1.24,-0.84 -0.2,-0.52 -0.6,-8.08 -0.4,-7.6 -0.4,-10.56 0,-2.48 0.64,-3 z m -0.24,-9.4 q 0,-0.56 0.44,-1.12 0.48,-0.56 0.84,-0.56 0.4,0 1.08,0.56 0.72,0.52 0.72,1.36 0,0.6 -0.36,1.04 -0.32,0.4 -0.88,0.4 -0.64,0 -1.24,-0.48 -0.6,-0.48 -0.6,-1.2 z" />
    <path
       inkscape:connector-curvature="0"
       id="path4214"
       style="font-style:normal;font-variant:normal;font-weight:normal;font-stretch:normal;font-size:medium;line-height:125%;font-family:Purisa;-inkscape-font-specification:Purisa;letter-spacing:0px;word-spacing:0px;fill:#000000;fill-opacity:0;stroke:url(#linearGradient4234);stroke-width:1px;stroke-linecap:butt;stroke-linejoin:miter;stroke-opacity:1"
       d="m 185.91409,235.15082 q -0.24,-2.56 -0.24,-5.64 0,-3.08 0.16,-4.68 0.16,-1.64 0.4,-2.08 0.24,-0.44 0.68,-0.44 0.4,0 0.64,0.36 0.24,0.4 1.44,18.52 1.24,18.12 1.24,18.84 0,0.52 -0.24,0.72 -0.24,0.16 -0.8,0.16 -0.96,0 -1.24,-1.36 -0.28,-1.4 -0.8,-8.68 -0.64,-8.8 -1.24,-15.72 z" />
    <path
       inkscape:connector-curvature="0"
       id="path4216"
       style="font-style:normal;font-variant:normal;font-weight:normal;font-stretch:normal;font-size:medium;line-height:125%;font-family:Purisa;-inkscape-font-specification:Purisa;letter-spacing:0px;word-spacing:0px;fill:#000000;fill-opacity:0;stroke:url(#linearGradient4236);stroke-width:1px;stroke-linecap:butt;stroke-linejoin:miter;stroke-opacity:1"
       d="m 210.82435,252.87082 q 0.2,0 0.2,0.32 0,0.72 -1.08,2.32 -1.04,1.6 -2.24,2.64 -4.2,3.72 -8.4,3.72 -1.6,0 -3.2,-0.72 -1.56,-0.76 -2.92,-2.12 -1.36,-1.36 -2.2,-3.64 -0.84,-2.28 -0.84,-5.08 0,-1.72 0.4,-2.92 0.8,-2.44 3.4,-5.16 2.64,-2.72 4.96,-2.72 0.64,0 1.92,0.12 1.92,0.16 2.68,0.4 0.8,0.24 1.8,1 1.28,0.96 2.2,2.48 0.96,1.48 0.96,2.48 0,1.28 -1,1.96 -1,0.64 -3.88,1.28 -3.72,0.84 -7.36,1.04 l -3.72,0.2 0,1.6 q 0,2.96 2.76,5.6 2.08,2 4.32,2 1.72,0 3.64,-1.04 1.96,-1.08 3.32,-2.36 1.36,-1.28 2.6,-2.32 1.24,-1.08 1.68,-1.08 z m -6.44,-9.76 q -1.24,-1.12 -1.88,-1.4 -0.6,-0.32 -1.6,-0.32 -2,0 -3,0.4 -0.96,0.36 -1.96,1.52 -3.04,3.48 -3.04,4.64 0,0.52 0.96,0.52 3.64,0 10.32,-1.52 2,-0.48 2,-1.68 0,-0.56 -1.8,-2.16 z" />
    <path
       inkscape:connector-curvature="0"
       id="path4218"
       style="font-style:normal;font-variant:normal;font-weight:normal;font-stretch:normal;font-size:medium;line-height:125%;font-family:Purisa;-inkscape-font-specification:Purisa;letter-spacing:0px;word-spacing:0px;fill:#000000;fill-opacity:0;stroke:url(#linearGradient4189);stroke-width:1px;stroke-linecap:butt;stroke-linejoin:miter;stroke-opacity:1"
       d="m 213.91185,249.95082 q 0,3.12 0.28,4.64 0.28,1.48 1.08,1.48 0.76,0 2.48,-1.88 1.76,-1.88 2.48,-3.52 0.92,-2 1.48,-4.8 0.56,-2.84 1,-4.32 0.44,-1.48 1.32,-1.48 0.44,0 0.8,0.36 0.36,0.36 0.36,0.92 0,0.64 -0.92,4.2 -0.88,3.56 -0.88,7.48 0,1.32 0.12,2.44 l 0.28,1.16 1.28,-0.64 q 1,-0.44 1.56,-0.44 1.04,0 1.04,0.76 0,0.96 -1.68,1.84 l -1.64,0.84 0.2,4.48 q -0.24,7.08 -0.52,7.48 -0.28,0.48 -1,0.48 -0.84,0 -2.52,-0.72 -0.96,-0.44 -1.52,-0.96 -0.52,-0.52 -1,-1.52 -1.12,-2.28 -1.12,-4.08 0,-0.64 0.12,-1 0.12,-0.32 0.6,-1.08 0.48,-0.72 0.88,-1.44 0.36,-0.68 1.16,-1.12 0.84,-0.48 1.04,-0.72 0.32,-0.32 0.6,-0.52 0.32,-0.2 0.4,-0.28 0.08,-0.08 0.08,-0.28 0,-0.48 -0.24,-1.8 -0.24,-1.36 -0.6,-1.36 -0.24,0 -1.08,1 -0.84,0.96 -2.12,1.96 -1.28,0.96 -2.56,0.96 -1.6,0 -2.64,-1.88 -0.52,-0.96 -0.68,-2.2 -0.12,-1.24 -0.12,-5.24 0.04,-4.52 0.32,-6.16 0.32,-1.68 1.16,-1.68 0.48,0 0.64,0.56 0.16,0.52 0.16,2.44 0,0.76 -0.04,2.6 -0.04,1.84 -0.04,3.04 z m 5.28,15.88 q 0,0.72 1.08,1.88 1.12,1.2 1.68,1.2 0.6,0 0.6,-2.8 -0.04,-0.76 -0.28,-1.88 -0.2,-1.12 -0.24,-1.56 l -0.24,-2.4 -1.12,1.72 q -1.48,2.32 -1.48,3.84 z" />
    <path
       inkscape:connector-curvature="0"
       id="path4261"
       style="font-style:normal;font-variant:normal;font-weight:normal;font-stretch:normal;font-size:8.75px;line-height:125%;font-family:Purisa;-inkscape-font-specification:Purisa;letter-spacing:0px;word-spacing:0px;fill:#000000;fill-opacity:0;stroke:url(#linearGradient4283);stroke-width:1px;stroke-linecap:butt;stroke-linejoin:miter;stroke-opacity:1"
       d="m 173.58332,264.80957 q 0,-0.1225 0.11375,-0.2975 0.11374,-0.175 0.20998,-0.175 0.11374,0 0.26249,-0.21 0.13999,-0.21 0.85749,-0.28875 0.91875,-0.0875 1.2075,-0.0875 0.3675,0 0.90125,0.0962 1.53125,0.2625 2.1525,0.77875 0.62125,0.5075 0.62125,1.54 0,0.91875 -0.315,1.74125 -0.30625,0.8225 -0.79625,1.37375 -0.49,0.55125 -1.0325,0.91875 -0.5425,0.35875 -1.05875,0.48125 -0.21875,0.0525 -0.32375,0.16625 -0.105,0.1225 -0.11375,0.2275 -0.009,0.105 -0.0875,0.18375 -0.07,0.0875 -0.23625,0.0875 -0.27125,0 -0.27125,-0.105 0,-0.0612 -0.07,-0.105 -0.07,-0.0438 -0.1575,-0.07 -0.0787,-0.0262 -0.14875,-0.11375 -0.07,-0.0875 -0.07,-0.2275 0,-0.23625 0.16625,-0.2975 0.16625,-0.0613 0.16625,-0.74375 0,-0.35875 -0.0437,-0.72625 -0.0438,-0.37625 -0.14875,-1.12875 -0.0962,-0.76125 -0.18375,-1.68 l -0.14,-1.51375 -0.315,0.0263 q -0.20125,0.0175 -0.385,0.14875 -0.18374,0.1225 -0.29749,0.23625 -0.11374,0.11375 -0.17498,0.11375 -0.0613,0 -0.17499,-0.1225 -0.11375,-0.13125 -0.11375,-0.2275 z m 2.09121,0.0263 q 0,0.27125 0.245,2.05625 0.25375,1.785 0.25375,2.3275 0,0.175 -0.0175,0.35 l -0.07,0.44625 0.4725,0 q 0.77875,0 1.7675,-1.1025 0.56,-0.63 0.7525,-1.26875 0.20125,-0.63875 0.20125,-1.5575 0,-0.385 -0.0612,-0.53375 -0.0525,-0.14875 -0.25375,-0.37625 -0.20125,-0.21875 -0.455,-0.32375 -0.25375,-0.105 -0.83125,-0.21875 -1.05,-0.175 -1.58375,-0.175 -0.245,0 -0.3325,0.0613 -0.0875,0.0612 -0.0875,0.315 z" />
    <path
       inkscape:connector-curvature="0"
       id="path4263"
       style="font-style:normal;font-variant:normal;font-weight:normal;font-stretch:normal;font-size:8.75px;line-height:125%;font-family:Purisa;-inkscape-font-specification:Purisa;letter-spacing:0px;word-spacing:0px;fill:#000000;fill-opacity:0;stroke:url(#linearGradient4285);stroke-width:1px;stroke-linecap:butt;stroke-linejoin:miter;stroke-opacity:1"
       d="m 183.88825,268.79957 q 0.0438,0 0.0438,0.07 0,0.1575 -0.23625,0.5075 -0.2275,0.35 -0.49,0.5775 -0.91875,0.81375 -1.8375,0.81375 -0.35,0 -0.7,-0.1575 -0.34125,-0.16625 -0.63875,-0.46375 -0.2975,-0.2975 -0.48125,-0.79625 -0.18375,-0.49875 -0.18375,-1.11125 0,-0.37625 0.0875,-0.63875 0.175,-0.53375 0.74375,-1.12875 0.5775,-0.595 1.085,-0.595 0.14,0 0.42,0.0263 0.42,0.035 0.58625,0.0875 0.175,0.0525 0.39375,0.21875 0.28,0.21 0.48125,0.5425 0.21,0.32375 0.21,0.5425 0,0.28 -0.21875,0.42875 -0.21875,0.14 -0.84875,0.28 -0.81375,0.18375 -1.61,0.2275 l -0.81375,0.0437 0,0.35 q 0,0.6475 0.60375,1.225 0.455,0.4375 0.945,0.4375 0.37625,0 0.79625,-0.2275 0.42875,-0.23625 0.72625,-0.51625 0.2975,-0.28 0.56875,-0.5075 0.27125,-0.23625 0.3675,-0.23625 z m -1.40875,-2.135 q -0.27125,-0.245 -0.41125,-0.30625 -0.13125,-0.07 -0.35,-0.07 -0.4375,0 -0.65625,0.0875 -0.21,0.0788 -0.42875,0.3325 -0.665,0.76125 -0.665,1.015 0,0.11375 0.21,0.11375 0.79625,0 2.2575,-0.3325 0.4375,-0.105 0.4375,-0.3675 0,-0.1225 -0.39375,-0.4725 z" />
    <path
       inkscape:connector-curvature="0"
       id="path4265"
       style="font-style:normal;font-variant:normal;font-weight:normal;font-stretch:normal;font-size:8.75px;line-height:125%;font-family:Purisa;-inkscape-font-specification:Purisa;letter-spacing:0px;word-spacing:0px;fill:#000000;fill-opacity:0;stroke:url(#linearGradient4287);stroke-width:1px;stroke-linecap:butt;stroke-linejoin:miter;stroke-opacity:1"
       d="m 186.41364,266.41957 q 0,-0.20125 0.1225,-0.4025 0.13125,-0.20125 0.2975,-0.20125 0.1925,0 0.1925,0.2275 0,0.41125 -1.085,3.36875 -0.21875,0.60375 -0.56,1.11125 -0.34125,0.5075 -0.525,0.5075 -0.14,0 -0.27125,-0.1575 -0.1225,-0.1575 -0.25375,-0.5075 -0.13125,-0.35 -0.2275,-0.665 -0.0962,-0.315 -0.2625,-0.88375 -0.1575,-0.5775 -0.2625,-0.91 -0.51625,-1.715 -0.51625,-1.93375 0,-0.0788 0.07,-0.0788 0.0525,0 0.0875,0.009 0.25375,0.0437 0.63,1.12875 0.385,1.085 0.6825,2.1525 0.2975,1.0675 0.34125,1.0675 0.0962,0 0.41125,-0.6475 0.32375,-0.6475 0.49,-1.19 0.1225,-0.385 0.2975,-0.86625 0.175,-0.49 0.25375,-0.74375 0.0875,-0.25375 0.0875,-0.385 z" />
    <path
       inkscape:connector-curvature="0"
       id="path4267"
       style="font-style:normal;font-variant:normal;font-weight:normal;font-stretch:normal;font-size:8.75px;line-height:125%;font-family:Purisa;-inkscape-font-specification:Purisa;letter-spacing:0px;word-spacing:0px;fill:#000000;fill-opacity:0;stroke:url(#linearGradient4289);stroke-width:1px;stroke-linecap:butt;stroke-linejoin:miter;stroke-opacity:1"
       d="m 190.67297,268.79957 q 0.0437,0 0.0437,0.07 0,0.1575 -0.23625,0.5075 -0.2275,0.35 -0.49,0.5775 -0.91875,0.81375 -1.8375,0.81375 -0.35,0 -0.7,-0.1575 -0.34125,-0.16625 -0.63875,-0.46375 -0.2975,-0.2975 -0.48125,-0.79625 -0.18375,-0.49875 -0.18375,-1.11125 0,-0.37625 0.0875,-0.63875 0.175,-0.53375 0.74375,-1.12875 0.5775,-0.595 1.085,-0.595 0.14,0 0.42,0.0263 0.42,0.035 0.58625,0.0875 0.175,0.0525 0.39375,0.21875 0.28,0.21 0.48125,0.5425 0.21,0.32375 0.21,0.5425 0,0.28 -0.21875,0.42875 -0.21875,0.14 -0.84875,0.28 -0.81375,0.18375 -1.61,0.2275 l -0.81375,0.0437 0,0.35 q 0,0.6475 0.60375,1.225 0.455,0.4375 0.945,0.4375 0.37625,0 0.79625,-0.2275 0.42875,-0.23625 0.72625,-0.51625 0.2975,-0.28 0.56875,-0.5075 0.27125,-0.23625 0.3675,-0.23625 z m -1.40875,-2.135 q -0.27125,-0.245 -0.41125,-0.30625 -0.13125,-0.07 -0.35,-0.07 -0.4375,0 -0.65625,0.0875 -0.21,0.0788 -0.42875,0.3325 -0.665,0.76125 -0.665,1.015 0,0.11375 0.21,0.11375 0.79625,0 2.2575,-0.3325 0.4375,-0.105 0.4375,-0.3675 0,-0.1225 -0.39375,-0.4725 z" />
    <path
       inkscape:connector-curvature="0"
       id="path4269"
       style="font-style:normal;font-variant:normal;font-weight:normal;font-stretch:normal;font-size:8.75px;line-height:125%;font-family:Purisa;-inkscape-font-specification:Purisa;letter-spacing:0px;word-spacing:0px;fill:#000000;fill-opacity:0;stroke:url(#linearGradient4291);stroke-width:1px;stroke-linecap:butt;stroke-linejoin:miter;stroke-opacity:1"
       d="m 190.36173,264.92332 q -0.0525,-0.56 -0.0525,-1.23375 0,-0.67375 0.035,-1.02375 0.035,-0.35875 0.0875,-0.455 0.0525,-0.0962 0.14875,-0.0962 0.0875,0 0.14,0.0788 0.0525,0.0875 0.315,4.05125 0.27125,3.96375 0.27125,4.12125 0,0.11375 -0.0525,0.1575 -0.0525,0.035 -0.175,0.035 -0.21,0 -0.27125,-0.2975 -0.0613,-0.30625 -0.175,-1.89875 -0.14,-1.925 -0.27125,-3.43875 z" />
    <path
       inkscape:connector-curvature="0"
       id="path4271"
       style="font-style:normal;font-variant:normal;font-weight:normal;font-stretch:normal;font-size:8.75px;line-height:125%;font-family:Purisa;-inkscape-font-specification:Purisa;letter-spacing:0px;word-spacing:0px;fill:#000000;fill-opacity:0;stroke:url(#linearGradient4293);stroke-width:1px;stroke-linecap:butt;stroke-linejoin:miter;stroke-opacity:1"
       d="m 191.90502,266.75207 q 0.6825,-0.63875 1.14625,-0.84 0.4725,-0.21 1.19,-0.21 1.085,0 1.35625,0.6475 0.16625,0.385 0.16625,0.945 0,0.9275 -0.41125,1.88125 -0.41125,0.945 -1.015,1.3125 -0.58625,0.35875 -1.23375,0.35875 -0.90125,0 -1.44375,-0.62125 -0.37625,-0.4375 -0.49,-0.735 -0.11375,-0.30625 -0.11375,-0.86625 0,-1.05875 0.84875,-1.8725 z m 1.40875,3.59625 q 0.735,0 1.33,-1.00625 0.60375,-1.015 0.60375,-2.2925 0,-0.1925 -0.0438,-0.28875 -0.0438,-0.0962 -0.1575,-0.1925 -0.32375,-0.27125 -0.69125,-0.27125 -0.0613,0 -0.14,0.0175 -0.07,0.009 -0.23625,0.035 -0.16625,0.0175 -0.39375,0.0437 -0.30625,0.0437 -0.49,0.14 -0.175,0.0875 -0.44625,0.34125 -0.51625,0.49 -0.735,0.91 -0.21875,0.41125 -0.21875,0.90125 0,0.72625 0.44625,1.19 0.455,0.46375 1.1725,0.4725 z" />
    <path
       inkscape:connector-curvature="0"
       id="path4273"
       style="font-style:normal;font-variant:normal;font-weight:normal;font-stretch:normal;font-size:8.75px;line-height:125%;font-family:Purisa;-inkscape-font-specification:Purisa;letter-spacing:0px;word-spacing:0px;fill:#000000;fill-opacity:0;stroke:url(#linearGradient4295);stroke-width:1px;stroke-linecap:butt;stroke-linejoin:miter;stroke-opacity:1"
       d="m 195.02719,266.57707 q 0.245,-0.21875 0.245,-0.37625 0,-0.1575 0.0962,-0.37625 0.105,-0.2275 0.2975,-0.2275 0.1225,0 0.21,0.14 0.0962,0.13125 0.20125,0.13125 0.0787,0 0.6475,-0.13125 0.56875,-0.14 0.9975,-0.14 0.35875,0 0.79625,0.0963 0.91,0.21 0.91,1.12875 0,0.7 -0.5425,1.86375 -0.35875,0.77 -0.875,1.19 -0.51625,0.41125 -1.1025,0.41125 -0.16625,0 -0.25375,-0.0175 l -0.4025,-0.0612 0.0962,0.4725 q 0.315,1.4875 0.315,1.86375 0,0.175 -0.0613,0.2275 -0.0613,0.0613 -0.21,0.0613 -0.1575,0 -0.2275,-0.0788 -0.0613,-0.07 -0.13125,-0.30625 -0.34125,-1.225 -0.55125,-3.6575 -0.0962,-1.19875 -0.16625,-1.46125 -0.0613,-0.27125 -0.25375,-0.27125 -0.28,0 -0.28,-0.16625 0,-0.0962 0.245,-0.315 z m 1.30375,2.905 q 0.13125,0 0.30625,0.11375 0.175,0.105 0.2975,0.105 0.35,0 0.805,-0.44625 0.455,-0.455 0.77,-1.09375 0.32375,-0.63875 0.32375,-1.1375 0,-0.27125 -0.1225,-0.49 -0.11375,-0.21875 -0.20125,-0.245 -0.14875,-0.0612 -0.51625,-0.0612 -0.81375,0 -1.44375,0.20125 l -0.58625,0.1925 0.0175,0.56 q 0.0175,0.56 0.0962,1.42625 0.0437,0.51625 0.0962,0.69125 0.0525,0.175 0.1575,0.18375 z" />
    <path
       inkscape:connector-curvature="0"
       id="path4275"
       style="font-style:normal;font-variant:normal;font-weight:normal;font-stretch:normal;font-size:8.75px;line-height:125%;font-family:Purisa;-inkscape-font-specification:Purisa;letter-spacing:0px;word-spacing:0px;fill:#000000;fill-opacity:0;stroke:url(#linearGradient4297);stroke-width:1px;stroke-linecap:butt;stroke-linejoin:miter;stroke-opacity:1"
       d="m 199.24228,266.27957 q 0,-0.5075 0.14,-0.5075 0.11375,0 0.245,0.79625 0.14,0.79625 0.1925,0.79625 0.0175,0 0.0613,-0.105 0.0438,-0.11375 0.0963,-0.245 0.0525,-0.14 0.0875,-0.175 0.0875,-0.11375 0.23625,-0.42875 0.18375,-0.37625 0.28,-0.455 0.0962,-0.0875 0.34125,-0.0875 0.27125,0 0.595,0.37625 0.21,0.245 0.28,0.455 0.0787,0.20125 0.16625,0.735 l 0.14,0.8225 0.14875,-0.525 q 0.21875,-0.76125 0.63,-1.3125 0.41125,-0.55125 0.76125,-0.55125 0.21875,0 0.4025,0.25375 0.18375,0.245 0.2625,0.63 0.0788,0.35875 0.0788,1.58375 0,0.91875 -0.009,1.4175 -0.009,0.49875 -0.0437,0.72625 -0.0263,0.21875 -0.0525,0.25375 -0.0263,0.0437 -0.0962,0.0525 -0.0263,0.009 -0.0613,0.009 -0.0787,0 -0.0962,-0.245 -0.0175,-0.245 -0.0263,-1.37375 0,-2.75625 -0.42,-2.75625 -0.2275,0 -0.595,0.7525 -0.30625,0.62125 -0.51625,1.51375 -0.21,0.8925 -0.25375,1.8025 -0.009,0.21875 -0.0525,0.2975 -0.035,0.0788 -0.1225,0.0788 -0.105,0 -0.14,-0.18375 -0.0263,-0.175 -0.0613,-0.945 -0.0613,-1.4175 -0.175,-1.98625 -0.11375,-0.5775 -0.42,-1.04125 -0.2275,-0.32375 -0.3325,-0.32375 -0.1225,0 -0.27125,0.30625 -0.14875,0.2975 -0.49,1.14625 -0.1575,0.41125 -0.1575,0.7525 0,0.20125 -0.0787,0.44625 -0.07,0.23625 -0.0963,1.18125 -0.0175,0.88375 -0.07,1.00625 -0.035,0.105 -0.14,0.105 -0.14,0 -0.1925,-0.42 -0.0438,-0.42 -0.0438,-1.68 0,-1.015 -0.07,-1.86375 -0.0613,-0.84875 -0.0613,-1.085 z" />
    <path
       inkscape:connector-curvature="0"
       id="path4277"
       style="font-style:normal;font-variant:normal;font-weight:normal;font-stretch:normal;font-size:8.75px;line-height:125%;font-family:Purisa;-inkscape-font-specification:Purisa;letter-spacing:0px;word-spacing:0px;fill:#000000;fill-opacity:0;stroke:url(#linearGradient4299);stroke-width:1px;stroke-linecap:butt;stroke-linejoin:miter;stroke-opacity:1"
       d="m 208.73686,268.79957 q 0.0438,0 0.0438,0.07 0,0.1575 -0.23625,0.5075 -0.2275,0.35 -0.49,0.5775 -0.91875,0.81375 -1.8375,0.81375 -0.35,0 -0.7,-0.1575 -0.34125,-0.16625 -0.63875,-0.46375 -0.2975,-0.2975 -0.48125,-0.79625 -0.18375,-0.49875 -0.18375,-1.11125 0,-0.37625 0.0875,-0.63875 0.175,-0.53375 0.74375,-1.12875 0.5775,-0.595 1.085,-0.595 0.14,0 0.42,0.0263 0.42,0.035 0.58625,0.0875 0.175,0.0525 0.39375,0.21875 0.28,0.21 0.48125,0.5425 0.21,0.32375 0.21,0.5425 0,0.28 -0.21875,0.42875 -0.21875,0.14 -0.84875,0.28 -0.81375,0.18375 -1.61,0.2275 l -0.81375,0.0437 0,0.35 q 0,0.6475 0.60375,1.225 0.455,0.4375 0.945,0.4375 0.37625,0 0.79625,-0.2275 0.42875,-0.23625 0.72625,-0.51625 0.2975,-0.28 0.56875,-0.5075 0.27125,-0.23625 0.3675,-0.23625 z m -1.40875,-2.135 q -0.27125,-0.245 -0.41125,-0.30625 -0.13125,-0.07 -0.35,-0.07 -0.4375,0 -0.65625,0.0875 -0.21,0.0788 -0.42875,0.3325 -0.665,0.76125 -0.665,1.015 0,0.11375 0.21,0.11375 0.79625,0 2.2575,-0.3325 0.4375,-0.105 0.4375,-0.3675 0,-0.1225 -0.39375,-0.4725 z" />
    <path
       inkscape:connector-curvature="0"
       id="path4279"
       style="font-style:normal;font-variant:normal;font-weight:normal;font-stretch:normal;font-size:8.75px;line-height:125%;font-family:Purisa;-inkscape-font-specification:Purisa;letter-spacing:0px;word-spacing:0px;fill:#000000;fill-opacity:0;stroke:url(#linearGradient4301);stroke-width:1px;stroke-linecap:butt;stroke-linejoin:miter;stroke-opacity:1"
       d="m 208.35021,265.94707 q 0,-0.2975 0.175,-0.2975 0.11375,0 0.16625,0.2625 0.0525,0.25375 0.1925,1.5225 0.175,1.4175 0.18375,1.435 0.009,0.009 0.07,-0.16625 0.07,-0.18375 0.18375,-0.5425 0.175,-0.5775 0.2975,-0.83125 0.1225,-0.2625 0.4375,-0.7175 0.63875,-0.88375 0.98875,-0.88375 0.2275,0 0.42875,0.30625 0.27125,0.4025 0.3325,0.79625 0.0613,0.39375 0.0875,1.86375 0.0175,0.945 0.0175,1.12 0,0.4375 -0.035,0.63875 -0.0263,0.1925 -0.0875,0.23625 -0.0525,0.0525 -0.1925,0.0612 -0.0788,0 -0.105,-0.07 -0.0263,-0.0612 -0.0263,-0.2975 0,-0.13125 0.0175,-0.56 0.0175,-0.4375 0.0175,-0.735 0,-0.74375 -0.0613,-1.4525 -0.0525,-0.7175 -0.13125,-0.91875 -0.0438,-0.11375 -0.14,-0.23625 -0.0962,-0.1225 -0.18375,-0.1225 -0.18375,0 -0.58625,0.63 -0.4025,0.62125 -0.69125,1.3125 -0.27125,0.63 -0.3675,0.97125 -0.0875,0.3325 -0.14875,0.91 -0.0962,0.8925 -0.14,0.8925 -0.07,0 -0.20125,-0.14875 -0.0962,-0.0962 -0.13125,-0.41125 -0.035,-0.32375 -0.0962,-1.26875 -0.0613,-0.95375 -0.16625,-1.925 -0.105,-1.00625 -0.105,-1.37375 z" />
    <path
       inkscape:connector-curvature="0"
       id="path4281"
       style="font-style:normal;font-variant:normal;font-weight:normal;font-stretch:normal;font-size:8.75px;line-height:125%;font-family:Purisa;-inkscape-font-specification:Purisa;letter-spacing:0px;word-spacing:0px;fill:#000000;fill-opacity:0;stroke:url(#linearGradient4303);stroke-width:1px;stroke-linecap:butt;stroke-linejoin:miter;stroke-opacity:1"
       d="m 212.56994,264.59957 q 0,-0.32375 -0.0613,-0.8225 -0.0613,-0.49875 -0.0613,-0.83125 0,-0.16625 0.009,-0.21875 0.0263,-0.14 0.0962,-0.21875 0.0788,-0.0875 0.1575,-0.0875 0.105,0 0.14875,0.0962 0.0263,0.0613 0.0788,0.6475 0.0525,0.58625 0.0962,1.14625 0.0437,0.56 0.0613,0.5775 0.009,0.009 0.0263,0.009 0.07,0 0.4025,-0.07 0.34125,-0.0788 0.56,-0.0788 0.4375,0 0.4375,0.1925 0,0.1925 -0.9625,0.42875 l -0.4375,0.105 0.0525,1.47875 q 0.0438,1.30375 0.16625,2.44125 0.1225,1.12875 0.1225,1.2775 0,0.27125 -0.20125,0.27125 -0.1575,0 -0.2625,-0.28 -0.0962,-0.28 -0.0962,-0.72625 0,-0.32375 -0.0263,-0.65625 -0.0263,-0.34125 -0.0962,-1.05 -0.0613,-0.7175 -0.1225,-1.47 -0.0263,-0.4025 -0.0438,-0.62125 -0.009,-0.21875 -0.0263,-0.32375 -0.0175,-0.105 -0.0262,-0.1225 -0.009,-0.0263 -0.035,-0.0263 -0.14,0 -0.67375,0.0962 -0.53375,0.0962 -0.665,0.0962 -0.25375,0 -0.25375,-0.21 0,-0.14875 0.315,-0.25375 0.32375,-0.105 0.72625,-0.18375 0.4025,-0.0875 0.49875,-0.14875 0.0962,-0.07 0.0962,-0.46375 z" />
  </g>
</svg>
